# xmcd
#
# Track frame offsets: 
#        150
#        24309
#        42689
#        63156
#        84292
#        116552
#        134072
#        160717
#        187990
#        213761
#        237684
#        257654
#
# Disc length: 3754 seconds
#
# Revision: 0
# Processed by: cddbd v1.5.2PL0 Copyright (c) Steve Scherf et al.
# Submitted via: ExactAudioCopy v0.95b4
#
DISCID=a10ea80c
DTITLE=Fernando Jose Wayra - Brothers
DYEAR=2007
DGENRE=Native American
TTITLE0=Axtuleman Sumix
TTITLE1=Flying Eagle
TTITLE2=The Cradlesong
TTITLE3=Dela Dela
TTITLE4=Winter Ceremony
TTITLE5=Rain Dance
TTITLE6=The Counter Clockwise circle of dance
TTITLE7=Songoyman
TTITLE8=Return from River Island
TTITLE9=Land of Promise
TTITLE10=SWishes of Happiness and prosperity
TTITLE11=Song of the Red River
EXTD=
EXTT0=
EXTT1=
EXTT2=
EXTT3=
EXTT4=
EXTT5=
EXTT6=
EXTT7=
EXTT8=
EXTT9=
EXTT10=
EXTT11=
PLAYORDER=
